<svg width="24" height="24" viewBox="0 0 24 24" fill="none" xmlns="http://www.w3.org/2000/svg">
<path id="Combined Shape" fill-rule="evenodd" clip-rule="evenodd" d="M12 24C18.6274 24 24 18.6274 24 12C24 5.37258 18.6274 0 12 0C5.37258 0 0 5.37258 0 12C0 18.6274 5.37258 24 12 24ZM12.888 4.85985L11.5719 4.14015L11.4388 4.39166C10.1478 6.91351 10.0688 9.63686 11.1927 12.5055L11.2926 12.769C12.1904 15.2161 12.0986 17.3148 11.045 19.1223L12.3409 19.8777L12.4664 19.6545C13.6816 17.4116 13.7132 14.827 12.5893 11.9583L12.4895 11.6942C11.5945 9.23626 11.7303 6.97677 12.888 4.85985ZM7.94499 8.60985L6.62893 7.89015L6.52916 8.08126C5.86095 9.42435 5.82713 10.8784 6.41916 12.3895L6.49562 12.5955C6.87644 13.6827 6.82615 14.5907 6.37053 15.3723L7.66643 16.1277L7.76172 15.9557C8.39882 14.7431 8.40788 13.3536 7.8158 11.8424L7.73954 11.6355C7.36094 10.5389 7.43215 9.54764 7.94499 8.60985ZM16.3789 7.89015L17.695 8.60985C17.1822 9.54764 17.1109 10.5389 17.4895 11.6355L17.5658 11.8424C18.1579 13.3536 18.1488 14.7431 17.5117 15.9557L17.4164 16.1277L16.1205 15.3723C16.5762 14.5907 16.6264 13.6827 16.2456 12.5955L16.1692 12.3895C15.5771 10.8784 15.611 9.42435 16.2792 8.08126L16.3789 7.89015Z" fill="#FFA043"/>
</svg>
